<!--?xml version="1.0" standalone="no"?-->

<svg xmlns="http://www.w3.org/2000/svg" width="300.000000pt" height="300.000000pt" viewBox="0 0 300.000000 300.000000" preserveAspectRatio="xMidYMid meet">
<g transform="translate(0.000000,300.000000) scale(0.100000,-0.100000)" fill="#121212" stroke="none">

<path class="node" id="node2" d="M839 2291 c-21 -22 -29 -39 -29 -65 0 -34 -2 -36 -34 -36 -40 0 -80
-29 -94 -68 -19 -55 31 -122 90 -122 15 0 30 5 33 10 13 22 43 8 95 -45 30
-30 58 -55 62 -55 14 0 128 93 128 103 0 6 -27 37 -60 69 -33 33 -60 63 -60
69 0 5 7 21 16 34 11 17 14 36 10 57 -16 79 -100 106 -157 49z" style="position: relative;"></path>
<path class="node" id="node3" d="M2026 2289 c-29 -34 -33 -75 -11 -105 8 -10 15 -24 15 -30 0 -5 -27
-38 -60 -72 -33 -33 -60 -65 -60 -71 0 -10 115 -101 127 -101 4 0 33 25 65 57
55 54 58 56 87 44 65 -28 131 17 131 89 0 49 -44 90 -96 90 -33 0 -34 1 -34
40 0 56 -36 90 -96 90 -35 0 -47 -5 -68 -31z" style="position: relative;"></path>
<path class="node" id="node4" d="M1380 2078 c-171 -35 -277 -87 -381 -185 -117 -112 -159 -205 -159
-354 0 -101 19 -170 66 -246 46 -73 143 -165 215 -203 52 -28 60 -35 54 -54
-17 -55 -25 -110 -16 -119 13 -13 31 1 31 24 0 27 18 24 22 -3 2 -18 10 -23
33 -23 23 0 31 6 36 25 7 23 7 24 8 3 1 -26 39 -40 68 -25 12 7 25 7 36 1 26
-15 57 -1 57 24 1 20 2 20 16 -5 16 -31 45 -36 64 -13 12 14 15 14 31 -1 16
-14 23 -15 46 -5 18 8 29 9 37 1 16 -16 44 -12 59 10 l14 21 6 -21 c4 -17 12
-21 34 -18 22 2 29 9 34 33 6 30 9 28 24 -20 2 -8 9 -15 15 -15 20 0 22 29 5
87 -16 54 -16 58 0 68 161 96 234 168 288 285 40 85 49 226 22 323 -39 141
-170 278 -333 349 -133 58 -312 81 -432 56z m17 -598 c62 -37 65 -83 10 -140
-51 -53 -109 -73 -200 -71 -164 3 -245 81 -164 159 48 47 125 70 232 71 72 1
96 -3 122 -19z m457 5 c129 -39 176 -115 104 -168 -51 -37 -90 -48 -170 -49
-88 -1 -146 21 -197 75 -44 46 -46 86 -6 127 28 29 31 30 124 30 56 0 116 -6
145 -15z m-374 -288 c0 -80 -9 -103 -35 -93 -15 5 -17 15 -12 65 14 126 47
146 47 28z m80 18 c15 -74 11 -110 -15 -110 -18 0 -20 8 -23 74 -2 41 -1 80 2
88 10 25 24 4 36 -52z" style="position: relative; fill: rgb(247, 17, 17);" fill="#f71111"></path>
<path class="node" id="node5" d="M932 1045 c-41 -41 -79 -75 -85 -75 -7 0 -21 7 -31 15 -54 41 -136
-9 -136 -83 0 -51 43 -92 96 -92 32 0 34 -2 34 -36 0 -79 100 -125 155 -70 30
30 42 73 26 97 -6 10 -11 24 -11 31 0 7 36 49 79 93 103 104 105 114 41 149
-27 15 -52 31 -55 36 -14 23 -44 5 -113 -65z" style="position: relative;"></path>
<path class="node" id="node6" d="M1908 1079 c-42 -29 -55 -43 -51 -57 2 -11 40 -54 84 -98 74 -74 92
-105 69 -119 -21 -13 -10 -66 19 -96 61 -61 161 -21 161 64 0 36 1 37 37 37
54 0 93 40 93 95 0 30 -6 47 -23 63 -32 31 -81 38 -112 18 -13 -9 -29 -16 -35
-16 -5 0 -42 34 -82 75 -40 41 -79 75 -88 74 -8 0 -40 -18 -72 -40z" style="position: relative;"></path>
</g>
<g transform="translate(0.000000,300.000000) scale(0.100000,-0.100000)" fill="#A1A1A1" stroke="none">


<path class="node" id="node9" d="M1130 1479 c-191 -68 -140 -206 77 -210 91 -2 149 18 200 71 55 57
52 103 -10 140 -44 27 -189 27 -267 -1z" style="position: relative; fill: rgb(31, 173, 97);" fill="#1fad61"></path>
<path class="node" id="node10" d="M1585 1470 c-40 -41 -38 -81 6 -127 51 -54 109 -76 197 -75 181 2
267 108 148 181 -57 36 -125 51 -227 51 -93 0 -96 -1 -124 -30z" style="position: relative; fill: rgb(64, 166, 88);" fill="#40a658"></path>
<path class="node" id="node11" d="M1450 1254 c-6 -15 -13 -53 -17 -85 -5 -50 -3 -60 12 -65 26 -10 35
13 35 93 0 76 -13 102 -30 57z" style="position: relative;"></path>
<path class="node" id="node12" d="M1524 1267 c-3 -8 -4 -47 -2 -88 3 -66 5 -74 23 -74 26 0 30 36 15
110 -12 56 -26 77 -36 52z" style="position: relative;"></path>
</g>
</svg>