<!--?xml version="1.0" standalone="no"?-->

<svg version="1.0" xmlns="http://www.w3.org/2000/svg" width="300.000000pt" height="300.000000pt" viewBox="0 0 300.000000 300.000000" preserveAspectRatio="xMidYMid meet">
<g transform="translate(0.000000,300.000000) scale(0.100000,-0.100000)" fill="#131313" stroke="none">
<path class="node" id="node1" d="M1315 2099 c-215 -61 -372 -195 -467 -397 -41 -86 -68 -208 -68 -303
0 -96 29 -221 73 -309 l42 -85 50 -3 c48 -2 53 0 109 51 l60 54 -23 31 c-12
18 -25 32 -28 32 -2 0 -28 -20 -56 -45 -29 -25 -57 -45 -63 -45 -12 0 -57 101
-73 166 -6 23 -12 70 -13 105 l-3 64 70 5 70 5 0 40 0 40 -64 3 -64 3 7 47 c6
47 69 186 105 232 l20 25 48 -47 c27 -27 53 -48 59 -48 6 0 20 13 31 29 l22
28 -45 44 c-24 24 -44 49 -44 55 0 19 90 81 172 118 74 34 177 60 190 48 4 -4
8 -41 10 -82 l3 -75 42 -3 42 -3 3 83 3 83 55 -3 c99 -6 246 -69 330 -141 l35
-29 -53 -54 -52 -54 30 -29 30 -29 51 50 50 49 21 -25 c40 -50 108 -206 108
-251 0 -15 -10 -19 -67 -21 l-68 -3 0 -40 0 -40 75 -5 75 -5 -4 -65 c-5 -91
-63 -270 -88 -270 -4 0 -30 23 -58 50 l-51 50 -29 -30 -29 -30 59 -60 c56 -57
62 -60 108 -60 l48 0 44 93 c129 267 82 577 -120 795 -104 113 -223 183 -367
217 -92 22 -266 18 -353 -6z"></path>
<path class="node" id="node2" d="M1270 1596 c0 -3 45 -62 99 -130 55 -69 102 -134 106 -146 10 -32 52
-44 82 -25 48 32 42 88 -11 110 -30 13 -117 74 -238 168 -21 16 -38 26 -38 23z"></path>
<path class="node" id="node3" d="M1180 870 l0 -80 319 0 c246 0 320 3 323 13 2 6 4 41 4 77 l-1 65
-322 3 -323 2 0 -80z"></path>
</g>
<g transform="translate(0.000000,300.000000) scale(0.100000,-0.100000)" fill="#A1A1A1" stroke="none">

</g>
</svg>